<svg id="ART" xmlns="http://www.w3.org/2000/svg" xmlns:xlink="http://www.w3.org/1999/xlink" viewBox="0 0 646.2 117.82"><defs><style>.cls-1{fill:#fff;}.cls-2{fill:url(#linear-gradient);}.cls-3{fill:url(#linear-gradient-2);}</style><linearGradient id="linear-gradient" x1="122.89" y1="117.08" x2="91.66" y2="58.04" gradientUnits="userSpaceOnUse"><stop offset="0" stop-color="#d9dce1"/><stop offset="1" stop-color="#fff"/></linearGradient><linearGradient id="linear-gradient-2" x1="142.25" y1="117.82" x2="198.22" y2="117.82" gradientUnits="userSpaceOnUse"><stop offset="0" stop-color="#00c9ff"/><stop offset="0.1" stop-color="#09cef8"/><stop offset="0.7" stop-color="#39ead4"/><stop offset="1" stop-color="#4bf5c6"/></linearGradient></defs><title>BlockDX_hor_neg_RGB</title><path class="cls-1" d="M124.71,58.91h-68l34,58.91-34,58.91h68l34-58.91Zm-11.34,98.18H90.69l22.68-39.27L90.7,78.55h22.67L136,117.82Z" transform="translate(-56.69 -58.91)"/><path class="cls-2" d="M158.72,117.82l-34-58.91h-68l34,58.91h22.67L90.7,78.55h22.67L136,117.82Z" transform="translate(-56.69 -58.91)"/><path class="cls-3" d="M155.89,83.45l14.17-24.54h22.67l-25.51,44.18Zm0,68.73,14.17,24.54h22.66l-25.5-44.18Z" transform="translate(-56.69 -58.91)"/><path class="cls-1" d="M268.64,78.54c14.56,0,23.72,8.27,23.72,21.51,0,8.49-5.3,14.56-10.59,16.66,6.07,2.43,11.8,8.27,11.8,18.2,0,14.45-9.82,22.17-23.72,22.17H238.08V78.54ZM250,89.24v22.51h17.65c7.61,0,12.8-4,12.8-11.25s-5.18-11.25-12.8-11.25Zm0,33.21v23.94h18.75c8.27,0,12.91-5.07,12.91-12s-4.63-11.91-12.91-11.91Z" transform="translate(-56.69 -58.91)"/><path class="cls-1" d="M317.62,146.39h37.84v10.7H305.71V78.54h11.92Z" transform="translate(-56.69 -58.91)"/><path class="cls-1" d="M407.76,85.82c7.72,7.72,7.94,15.56,7.94,32s-.22,24.27-7.94,32c-5.07,5.07-11.69,7.94-20.3,7.94s-15.22-2.87-20.3-7.94c-7.72-7.72-7.94-15.56-7.94-32s.22-24.27,7.94-32c5.07-5.07,11.69-7.94,20.3-7.94S402.68,80.75,407.76,85.82Zm-32,7.5c-3.86,4.19-4.63,8.94-4.63,24.49s.77,20.19,4.63,24.38a16.51,16.51,0,0,0,23.39,0c4-4.08,4.63-8.83,4.63-24.38s-.66-20.41-4.63-24.49a16.79,16.79,0,0,0-23.39,0Z" transform="translate(-56.69 -58.91)"/><path class="cls-1" d="M483.11,102H471c-1.76-8.05-7.17-13.46-15.89-13.46a15.29,15.29,0,0,0-11.58,4.74c-4,4.19-4.74,8.94-4.74,24.49s.77,20.3,4.74,24.49a15.29,15.29,0,0,0,11.58,4.74c8.71,0,14.12-5.41,15.89-13.46h12.14c-2.76,15.56-13.68,24.16-28,24.16-8.61,0-15.22-2.87-20.3-7.94-7.61-7.72-7.94-15.56-7.94-32s.33-24.27,7.94-32c5.07-5.07,11.69-7.94,20.3-7.94C469.54,77.88,480.36,86.49,483.11,102Z" transform="translate(-56.69 -58.91)"/><path class="cls-1" d="M526.58,109.32l28.13,47.77h-14l-22.06-38.72L505.4,134.26v22.84H493.49V78.54H505.4V118l32.1-39.49h14.56Z" transform="translate(-56.69 -58.91)"/><path class="cls-1" d="M611.42,78.54c9.82,0,16.77,3.09,22.29,9.93,5.74,7.06,6,16.77,6,29.35s-.22,22.29-6,29.35c-5.52,6.84-12.47,9.93-22.29,9.93H583.84V78.54Zm-15.67,10.7v57.15H610.1c5.63,0,10.15-1.43,13.46-5.3,3.86-4.3,4.19-11.58,4.19-23.28s-.33-19-4.19-23.28c-3.31-3.86-7.83-5.3-13.46-5.3Z" transform="translate(-56.69 -58.91)"/><path class="cls-1" d="M678.5,116.82l24.38,40.27H689.09L672,127l-17,30.12H641.32l24.27-40.27L642.87,78.54h13.68L672,106.68l15.56-28.13h13.68Z" transform="translate(-56.69 -58.91)"/></svg>